<svg width="503" height="190" viewBox="0 0 503 190" fill="none" xmlns="http://www.w3.org/2000/svg">
<path d="M50.7288 15.5476C52.582 13.5 55.3837 10.4055 55.3837 4.53745C55.3837 2.03148 53.8034 0 51.8539 0C49.9045 0 48.3242 2.03148 48.3242 4.53745C48.3242 6.06884 47.8799 6.7296 46.1278 8.66482C44.2746 10.7123 41.4729 13.8069 41.4729 19.6744C41.4729 25.5419 44.2742 28.6358 46.1278 30.6845C47.8799 32.6197 48.3242 33.2776 48.3242 34.8113C48.3242 36.345 47.8799 37.0046 46.1273 38.9404C44.2742 40.9879 41.4729 44.083 41.4729 49.951C41.4729 55.8191 44.2737 58.9125 46.1273 60.9617C47.8799 62.8975 48.3242 63.556 48.3242 65.0902C48.3242 67.5962 49.9045 69.6277 51.8539 69.6277C53.8034 69.6277 55.3837 67.5962 55.3837 65.0902C55.3837 59.2222 52.5828 56.1288 50.7293 54.0796C48.9767 52.1438 48.5324 51.4853 48.5324 49.951C48.5324 48.4168 48.9767 47.7583 50.7293 45.8225C52.5824 43.7745 55.3837 40.6799 55.3837 34.8113C55.3837 28.9427 52.5824 25.8498 50.7288 23.8017C48.9767 21.8665 48.5324 21.208 48.5324 19.6744C48.5324 18.1407 48.9767 17.4828 50.7288 15.5476Z" fill="black"/>
<path d="M25.0427 39.5852C26.9694 38.4016 29.8805 36.6134 29.8805 33.0633C29.8805 31.4665 28.3002 30.172 26.3508 30.172C24.4015 30.172 22.8212 31.4665 22.8212 33.0633C22.8212 33.6173 22.5013 33.9184 20.8075 34.9588C18.8812 36.1421 15.9697 37.93 15.9697 41.4808C15.9697 45.0316 18.8816 46.8191 20.8071 48.0027C22.5013 49.0432 22.8212 49.3446 22.8212 49.8986C22.8212 50.4527 22.5013 50.7544 20.8071 51.7949C18.8807 52.9785 15.9697 54.7675 15.9697 58.3176C15.9697 61.8676 18.8816 63.6566 20.8071 64.8402C22.5013 65.881 22.8212 66.1821 22.8212 66.7365C22.8212 68.3333 24.4015 69.6277 26.3508 69.6277C28.3002 69.6277 29.8805 68.3333 29.8805 66.7365C29.8805 63.186 26.9685 61.3978 25.0427 60.2142C23.3489 59.1734 23.029 58.872 23.029 58.3176C23.029 57.7632 23.3489 57.4617 25.0431 56.4209C26.9694 55.2373 29.8805 53.4487 29.8805 49.8986C29.8805 46.3485 26.9712 44.5599 25.0427 43.3767C23.3489 42.3362 23.029 42.0348 23.029 41.4808C23.029 40.9267 23.3489 40.6257 25.0427 39.5852Z" fill="black"/>
<path d="M76.0495 34.2836C77.975 32.8911 80.8869 30.7873 80.8869 26.6107C80.8869 24.7322 79.3067 23.2093 77.3573 23.2093C75.4079 23.2093 73.8276 24.7322 73.8276 26.6107C73.8276 27.2625 73.5077 27.6167 71.8139 28.8408C69.8876 30.2329 66.9761 32.3371 66.9761 36.5137C66.9761 40.6902 69.8881 42.794 71.8139 44.1865C73.5077 45.4106 73.8276 45.7652 73.8276 46.417C73.8276 47.0688 73.5077 47.4239 71.8139 48.648C69.8872 50.0404 66.9761 52.1451 66.9761 56.3217C66.9761 60.4982 69.8881 62.6029 71.8139 63.9953C73.5077 65.2199 73.8276 65.5741 73.8276 66.2263C73.8276 68.1049 75.4079 69.6277 77.3573 69.6277C79.3067 69.6277 80.8869 68.1049 80.8869 66.2263C80.8869 62.0493 77.975 59.9455 76.0495 58.553C74.3553 57.3285 74.0354 56.9739 74.0354 56.3217C74.0354 55.6694 74.3553 55.3148 76.0495 54.0903C77.975 52.6978 80.8869 50.5936 80.8869 46.417C80.8869 42.2405 77.975 40.1362 76.0495 38.7442C74.3553 37.5201 74.0354 37.1655 74.0354 36.5137C74.0354 35.8619 74.3571 35.5077 76.0495 34.2836Z" fill="black"/>
<path d="M176.297 190C198.832 190 212.521 178.303 221.034 164.934L204.341 156.412C198.999 165.77 188.316 172.621 176.297 172.621C154.262 172.621 137.903 155.743 137.903 132.348C137.903 108.953 154.262 92.0756 176.297 92.0756C188.316 92.0756 198.999 99.0941 204.341 108.285L221.034 99.7625C212.688 86.394 198.832 74.6965 176.297 74.6965C143.412 74.6965 117.871 98.0914 117.871 132.348C117.871 166.605 143.412 190 176.297 190Z" fill="black"/>
<path d="M272.556 190C298.43 190 314.121 170.783 314.121 147.555C314.121 124.494 298.43 105.277 272.556 105.277C247.015 105.277 231.157 124.494 231.157 147.555C231.157 170.783 247.015 190 272.556 190ZM272.556 174.459C257.699 174.459 249.352 161.926 249.352 147.555C249.352 133.351 257.699 120.818 272.556 120.818C287.579 120.818 295.926 133.351 295.926 147.555C295.926 161.926 287.579 174.459 272.556 174.459Z" fill="black"/>
<path d="M368.247 190C394.121 190 409.813 170.783 409.813 147.555C409.813 124.494 394.121 105.277 368.247 105.277C342.707 105.277 326.848 124.494 326.848 147.555C326.848 170.783 342.707 190 368.247 190ZM368.247 174.459C353.39 174.459 345.044 161.926 345.044 147.555C345.044 133.351 353.39 120.818 368.247 120.818C383.271 120.818 391.617 133.351 391.617 147.555C391.617 161.926 383.271 174.459 368.247 174.459Z" fill="black"/>
<path d="M503 187.995L468.779 143.879L502.332 107.282H480.631L445.075 146.218V76.5347H427.548V187.995H445.075V166.271L456.26 154.741L480.965 187.995H503Z" fill="black"/>
<path d="M48.2428 190C80.4603 190 96.3187 171.618 96.3187 143.879V76.5347H76.6209V143.377C76.6209 161.091 66.7721 172.621 48.2428 172.621C29.5466 172.621 19.6978 161.091 19.6978 143.377V76.5347H0V144.046C0 171.451 15.8584 190 48.2428 190Z" fill="black"/>
</svg>
